<svg height="496pt" viewBox="0 0 496 496" width="496pt" xmlns="http://www.w3.org/2000/svg"><path d="m488 448h-376v-24c0-4.425781-3.585938-8-8-8h-8v-144h80v136c0 22.054688 17.945312 40 40 40s40-17.945312 40-40v-136h8c4.414062 0 8-3.574219 8-8v-32c0-4.414062-3.585938-8-8-8h-8v-16h8c4.414062 0 8-3.585938 8-8v-32c0-4.414062-3.585938-8-8-8h-24v-16h128v16h-24c-4.414062 0-8 3.585938-8 8v32c0 4.414062 3.585938 8 8 8h8v40.089844c-38.503906 16.070312-64 53.910156-64 95.910156 0 57.34375 46.65625 104 104 104s104-46.65625 104-104c0-42-25.496094-79.839844-64-95.910156v-40.089844h8c4.414062 0 8-3.585938 8-8v-32c0-4.414062-3.585938-8-8-8h-24v-24c0-22.054688-17.945312-40-40-40h-144c-22.054688 0-40 17.945312-40 40v24h-24c-4.414062 0-8 3.585938-8 8v32c0 4.414062 3.585938 8 8 8h8v16h-80v-88c0-4.414062-3.585938-8-8-8h-48c-4.414062 0-8 3.585938-8 8v88h-8c-13.230469 0-24 10.769531-24 24s10.769531 24 24 24h8v144h-8c-4.414062 0-8 3.574219-8 8v24h-8c-4.414062 0-8 3.574219-8 8v32c0 4.425781 3.585938 8 8 8h480c4.414062 0 8-3.574219 8-8v-32c0-4.425781-3.585938-8-8-8zm-272-16c-13.230469 0-24-10.769531-24-24v-104h48v104c0 13.230469-10.769531 24-24 24zm24-144h-48v-16h48zm152 144c-47.457031 0-86.160156-37.792969-87.839844-84.847656l12.128906-12.121094c4.464844-4.472656 10.648438-7.03125 16.96875-7.03125h5.496094c6.316406 0 12.492188 2.558594 16.972656 7.039062l5.257813 5.242188c7.550781 7.550781 17.601563 11.71875 28.28125 11.71875h5.496094c10.679687 0 20.726562-4.167969 28.277343-11.710938l5.265626-5.257812c4.449218-4.472656 10.632812-7.03125 16.953124-7.03125h5.496094c6.316406 0 12.492188 2.558594 16.964844 7.03125l12.128906 12.121094c-1.6875 47.054687-40.390625 84.847656-87.847656 84.847656zm85.199219-109.785156c-7.328125-6.511719-16.574219-10.214844-26.457031-10.214844h-5.496094c-10.679688 0-20.726563 4.167969-28.277344 11.710938l-5.265625 5.257812c-4.457031 4.472656-10.640625 7.03125-16.960937 7.03125h-5.496094c-6.316406 0-12.492188-2.558594-16.972656-7.039062l-5.257813-5.242188c-7.542969-7.550781-17.589844-11.71875-28.273437-11.71875h-5.496094c-9.878906 0-19.125 3.703125-26.445313 10.214844 7.183594-27.894532 27.832031-51.167969 55.871094-61.09375 3.191406-1.136719 5.328125-4.152344 5.328125-7.546875v-13.574219h48v13.574219c0 3.394531 2.136719 6.410156 5.328125 7.539062 28.039063 9.933594 48.6875 33.207031 55.871094 61.101563zm-61.199219-98.214844h-48v-16h48zm16-32h-80v-16h80zm-224-56c0-13.230469 10.769531-24 24-24h144c13.230469 0 24 10.769531 24 24v24h-16v-24c0-4.414062-3.585938-8-8-8h-144c-4.414062 0-8 3.585938-8 8v24h-16zm-32 40h80v16h-80zm16 32h48v16h-48zm-112-64v16h-32v-16zm-32 32h32v48h-32zm-32 72c0-4.40625 3.59375-8 8-8h232v16h-232c-4.40625 0-8-3.59375-8-8zm32 24h32v144h-32zm-16 160h64v16h-64zm448 48h-464v-16h464zm0 0"/><path d="m352 352c-13.230469 0-24 10.769531-24 24s10.769531 24 24 24 24-10.769531 24-24-10.769531-24-24-24zm0 32c-4.40625 0-8-3.585938-8-8s3.59375-8 8-8 8 3.585938 8 8-3.59375 8-8 8zm0 0"/><path d="m416 368c-13.230469 0-24 10.769531-24 24s10.769531 24 24 24 24-10.769531 24-24-10.769531-24-24-24zm0 32c-4.40625 0-8-3.585938-8-8s3.59375-8 8-8 8 3.585938 8 8-3.59375 8-8 8zm0 0"/><path d="m440 344h16v16h-16zm0 0"/><path d="m24 48c4.894531 0 9.457031-1.488281 13.257812-4.023438l76.582032 41.765626c-1.113282 3.242187-1.839844 6.648437-1.839844 10.257812 0 17.648438 14.351562 32 32 32s32-14.351562 32-32c0-5.28125-1.40625-10.199219-3.6875-14.59375l59.589844-39.726562c4.265625 3.886718 9.882812 6.320312 16.097656 6.320312 13.230469 0 24-10.769531 24-24s-10.769531-24-24-24-24 10.769531-24 24c0 1.191406.183594 2.335938.351562 3.480469l-62.75 41.839843c-5.058593-3.34375-11.097656-5.320312-17.601562-5.320312-8.230469 0-15.671875 3.207031-21.34375 8.335938l-75.816406-41.351563c.6875-2.222656 1.160156-4.535156 1.160156-6.984375 0-13.230469-10.769531-24-24-24s-24 10.769531-24 24 10.769531 24 24 24zm224-32c4.40625 0 8 3.59375 8 8s-3.59375 8-8 8-8-3.59375-8-8 3.59375-8 8-8zm-104 64c8.824219 0 16 7.175781 16 16s-7.175781 16-16 16-16-7.175781-16-16 7.175781-16 16-16zm-120-64c4.40625 0 8 3.59375 8 8s-3.59375 8-8 8-8-3.59375-8-8 3.59375-8 8-8zm0 0"/></svg>
