<?xml version="1.0" encoding="utf-8"?>
<!-- Svg Vector Icons : http://www.onlinewebfonts.com/icon -->
<!DOCTYPE svg PUBLIC "-//W3C//DTD SVG 1.1//EN" "http://www.w3.org/Graphics/SVG/1.1/DTD/svg11.dtd">
<svg version="1.1" xmlns="http://www.w3.org/2000/svg" xmlns:xlink="http://www.w3.org/1999/xlink" x="0px" y="0px" viewBox="0 0 1000 1000" enable-background="new 0 0 1000 1000" xml:space="preserve">
<metadata> Svg Vector Icons : http://www.onlinewebfonts.com/icon </metadata>
<g><g transform="matrix(1 0 0 -1 0 1920)"><path d="M203.6,930c-25.3,0-46.9,8.9-64.7,26.7c-17.8,17.8-26.7,39.4-26.7,64.7v102.9c0,23.4,7.8,43.7,23.5,60.8c15.7,17.1,35,27.1,58.2,29.8v410c-15,1.6-28.7,6.7-41.2,15.1c-12.5,8.4-22.4,19.3-29.6,32.5c-7.2,13.2-10.8,27.6-10.8,43.1v102.9c0,25.3,8.9,46.9,26.7,64.7c17.8,17.8,39.4,26.7,64.7,26.7h102.9c25.3,0,46.9-8.9,64.7-26.7c17.8-17.8,26.7-39.4,26.7-64.7v-102.9c0-23.4-7.8-43.7-23.5-60.8c-15.7-17.1-35-27.1-58.2-29.8v-205h172.3l115.1,116.4c-1.1,6.3-1.6,11.6-1.6,15.9v102.9c0,25.3,8.9,46.9,26.7,64.7c17.8,17.8,39.4,26.7,64.7,26.7h102.9c12.5,0,24.4-2.5,35.5-7.4c11.2-4.9,20.8-11.4,29-19.6c8.2-8.2,14.7-17.9,19.6-29.2c4.9-11.3,7.3-23.1,7.3-35.3v-102.9c0-25.3-8.9-46.9-26.7-64.7c-17.8-17.8-39.4-26.7-64.7-26.7h-95.1l-143.7-145.4c-12-12-26.4-18-43.3-18h-198V1215c23.1-2.7,42.5-12.7,58.2-29.8c15.7-17.2,23.5-37.4,23.5-60.8v-102.9c0-25.3-8.9-46.9-26.7-64.7c-17.8-17.8-39.4-26.7-64.7-26.7H203.6z M203.6,1705.8h102.9c2.7,0,5,1,6.9,2.9c1.9,1.9,2.9,4.2,2.9,6.9v102.9c0,2.7-1,5-2.9,6.9c-1.9,1.9-4.2,2.9-6.9,2.9H203.6c-2.7,0-5-1-6.9-2.9c-1.9-1.9-2.9-4.2-2.9-6.9v-102.9c0-2.7,1-5,2.9-6.9C198.5,1706.8,200.8,1705.8,203.6,1705.8z M693.6,1542.5h102.9c2.7,0,5,1,6.9,2.9c1.9,1.9,2.9,4.2,2.9,6.9v102.9c0,2.7-1,5-2.9,6.9c-1.9,1.9-4.2,2.9-6.9,2.9H693.6c-2.7,0-5-1-6.9-2.9c-1.9-1.9-2.9-4.2-2.9-6.9v-102.9c0-2.7,1-5,2.9-6.9C688.5,1543.5,690.8,1542.5,693.6,1542.5z M203.6,1011.7h102.9c2.7,0,5,1,6.9,2.9c1.9,1.9,2.9,4.2,2.9,6.9v102.9c0,2.7-1,5-2.9,6.9c-1.9,1.9-4.2,2.9-6.9,2.9H203.6c-2.7,0-5-1-6.9-2.9c-1.9-1.9-2.9-4.2-2.9-6.9v-102.9c0-2.7,1-5,2.9-6.9C198.5,1012.6,200.8,1011.7,203.6,1011.7z"/></g></g>
</svg>